# xmcd
#
# Track frame offsets:
#	183
#	15025
#	30208
#	42103
#	53573
#	66333
#	79365
#	98693
#	113755
#	127400
#	142100
#	153115
#	165258
#	178013
#	190488
#	213350
#	224573
#	235345
#	245355
#	260280
#
# Disc length: 3742
#
# Revision: 2
# Processed by: cddbd v1.5.1PL0 Copyright (c) Steve Scherf et al.
# Submitted via: CDValet v3.31 - Copyright (c) 1997 Greg Leichner
# Normalized: r1:DSETVAR1,TDELIM( - )
#
DISCID=0d0e9c14
DTITLE=Various Artist - 20 Blues Classics - Part 4
DYEAR=1900
DGENRE=
TTITLE0=B.B. King - How Blue Can You Get
TTITLE1=Muddy Waters - Standing Around Crying
TTITLE2=Elmore James - Pickin' The Blues
TTITLE3=Howlin' Wolf - Sittin' On Top Of The World
TTITLE4=John Lee Hooker - Trouble Blues
TTITLE5=B.B. King - I'm Working On The Building
TTITLE6=John Mayall - John Lee Boogie
TTITLE7=Muddy Waters - Baby Please Don't Go
TTITLE8=John Lee Hooker - Tease Me Baby
TTITLE9=John Mayall - Why Worry
TTITLE10=Elmore James - Coming Home
TTITLE11=John Lee Hooker - Crawling King Snake
TTITLE12=Howlin' Wolf - Back Door Man
TTITLE13=Little Walter - Tell Me Mama
TTITLE14=John Mayall - Baby What You Want Me To Do
TTITLE15=John Lee Hooker - Bottle Up and Go
TTITLE16=Elmore James - Can't Stop Lovin'
TTITLE17=Howlin' Wolf - Shake For Me
TTITLE18=Elmore James - Wild About You Baby
TTITLE19=Eric Burdon and The Animals - C. Jam Blues
EXTD=
EXTT0=
EXTT1=
EXTT2=
EXTT3=
EXTT4=
EXTT5=
EXTT6=
EXTT7=
EXTT8=
EXTT9=
EXTT10=
EXTT11=
EXTT12=
EXTT13=
EXTT14=
EXTT15=
EXTT16=
EXTT17=
EXTT18=
EXTT19=
PLAYORDER=
